<svg width="92" height="12" fill="none" xmlns="http://www.w3.org/2000/svg"><path d="M7.984.224c-.043.405-.075.8-.096 1.184-.01.373-.016.661-.016.864 0 .256.005.496.016.72.01.224.021.421.032.592h-.368c-.075-.747-.176-1.333-.304-1.76-.128-.437-.352-.752-.672-.944C6.256.688 5.76.592 5.088.592H4.08c-.363 0-.64.032-.832.096a.532.532 0 00-.368.368c-.064.181-.096.47-.096.864v7.936c0 .384.037.672.112.864.085.192.245.32.48.384s.576.107 1.024.128v.32c-.277-.021-.63-.032-1.056-.032a51.7 51.7 0 00-1.296-.016c-.416 0-.805.005-1.168.016-.363 0-.656.01-.88.032v-.32c.363-.021.635-.064.816-.128a.577.577 0 00.384-.384c.064-.192.096-.48.096-.864V1.92c0-.395-.032-.683-.096-.864A.577.577 0 00.816.672C.635.597.363.555 0 .544v-.32l1.248.032c.437 0 .87.005 1.296.016h3.76c.63-.01 1.19-.027 1.68-.048zm-2.48 5.632v.32h-3.2v-.32h3.2zm.304-2.112a21.495 21.495 0 00-.064 1.392c.01.32.016.613.016.88s.005.56.016.88c.01.32.037.784.08 1.392h-.368a13.76 13.76 0 00-.16-.992c-.053-.33-.181-.597-.384-.8-.192-.213-.523-.32-.992-.32v-.32c.352 0 .619-.07.8-.208.192-.15.33-.336.416-.56.085-.224.144-.453.176-.688.032-.245.064-.464.096-.656h.368zM17.093.224c-.042.373-.074.736-.096 1.088-.01.352-.016.619-.016.8 0 .192.006.379.016.56.011.17.022.315.032.432h-.368c-.064-.63-.154-1.125-.272-1.488-.117-.373-.32-.635-.608-.784-.277-.16-.698-.24-1.264-.24H13.19c-.362 0-.64.032-.832.096a.532.532 0 00-.368.368c-.064.181-.096.47-.096.864v7.936c0 .384.032.672.096.864.064.192.187.32.368.384.192.053.47.08.832.08h1.168c.672 0 1.179-.09 1.52-.272.352-.181.603-.475.752-.88.16-.416.278-.976.352-1.68h.368c-.032.288-.048.672-.048 1.152 0 .203.006.496.016.88.022.373.054.763.096 1.168a47.471 47.471 0 00-1.84-.032c-.682-.01-1.29-.016-1.824-.016h-.912c-.362 0-.757.005-1.184.016-.426 0-.858.005-1.296.016-.437 0-.853.005-1.248.016v-.32c.363-.021.635-.064.816-.128a.577.577 0 00.384-.384c.064-.192.096-.48.096-.864V1.92c0-.395-.032-.683-.096-.864a.577.577 0 00-.384-.384C9.744.597 9.472.555 9.11.544v-.32l1.248.032c.438 0 .87.005 1.296.016h3.76c.63-.01 1.19-.027 1.68-.048zm-2.752 5.472v.32h-2.928v-.32h2.928zm.464-2.112a21.466 21.466 0 00-.064 1.392c.011.32.016.613.016.88s.006.56.016.88c.011.32.038.784.08 1.392h-.368a13.781 13.781 0 00-.16-.992c-.053-.33-.181-.597-.384-.8-.192-.213-.522-.32-.992-.32v-.32c.352 0 .619-.07.8-.208.192-.15.331-.336.416-.56.086-.224.144-.453.176-.688.032-.245.064-.464.096-.656h.368zM22.283.048c.534 0 .939.064 1.216.192.278.117.523.25.736.4l.304.176a.685.685 0 00.24.048c.107 0 .182-.059.224-.176.054-.117.096-.293.128-.528h.368c-.01.181-.026.4-.048.656-.01.245-.021.576-.032.992v1.616h-.368a4.623 4.623 0 00-.336-1.472A2.805 2.805 0 0023.867.8c-.362-.299-.842-.448-1.44-.448-.565 0-1.034.17-1.408.512-.362.341-.544.79-.544 1.344 0 .48.123.885.368 1.216.246.32.571.613.976.88.416.256.864.533 1.344.832a14.66 14.66 0 011.472 1.024c.438.33.779.699 1.024 1.104.256.405.384.896.384 1.472 0 .683-.154 1.248-.464 1.696-.309.448-.72.784-1.232 1.008a4.186 4.186 0 01-1.696.336c-.565 0-1.013-.064-1.344-.192a5.767 5.767 0 01-.848-.4c-.234-.15-.416-.224-.544-.224-.106 0-.186.059-.24.176-.042.117-.08.293-.112.528h-.368c.022-.224.032-.485.032-.784.011-.31.016-.71.016-1.2.011-.49.016-1.11.016-1.856h.368c.043.64.16 1.237.352 1.792.203.555.507 1.003.912 1.344.416.33.966.496 1.648.496.352 0 .683-.07.992-.208.32-.15.582-.379.784-.688.203-.32.304-.73.304-1.232 0-.437-.106-.816-.32-1.136a3.3 3.3 0 00-.864-.912 13.31 13.31 0 00-1.312-.88c-.501-.31-.97-.624-1.408-.944a4.133 4.133 0 01-1.056-1.104c-.256-.427-.384-.939-.384-1.536 0-.63.139-1.147.416-1.552.288-.416.662-.72 1.12-.912a3.6 3.6 0 011.472-.304zM36.3.224c-.043.405-.075.8-.096 1.184-.01.373-.016.661-.016.864 0 .256.005.496.016.72.01.224.021.421.032.592h-.368c-.075-.747-.176-1.333-.304-1.76-.128-.437-.352-.752-.672-.944-.32-.192-.816-.288-1.488-.288h-.864v9.104c0 .427.037.747.112.96a.723.723 0 00.48.432c.235.075.576.123 1.024.144v.32c-.277-.021-.63-.032-1.056-.032a51.704 51.704 0 00-2.656 0c-.416 0-.752.01-1.008.032v-.32c.448-.021.79-.07 1.024-.144a.676.676 0 00.464-.432c.085-.213.128-.533.128-.96V.592h-.864c-.661 0-1.157.096-1.488.288-.32.192-.544.507-.672.944-.128.427-.23 1.013-.304 1.76h-.368c.021-.17.032-.368.032-.592.01-.224.016-.464.016-.72 0-.203-.01-.49-.032-.864-.01-.384-.037-.779-.08-1.184l1.456.032c.533.01 1.067.016 1.6.016h2.896c.533 0 1.067-.005 1.6-.016.533-.01 1.019-.021 1.456-.032zm5.218 0v.32c-.363.01-.64.053-.833.128a.577.577 0 00-.367.384c-.064.181-.096.47-.096.864v7.936c0 .384.032.672.096.864.064.192.186.32.367.384.192.064.47.107.832.128v.32a11.07 11.07 0 00-.928-.032 39.751 39.751 0 00-2.272 0c-.362 0-.656.01-.88.032v-.32c.363-.021.635-.064.817-.128a.577.577 0 00.384-.384c.064-.192.096-.48.096-.864V1.92c0-.395-.032-.683-.096-.864a.577.577 0 00-.384-.384c-.182-.075-.454-.117-.816-.128v-.32c.223.01.517.021.88.032a39.867 39.867 0 002.272 0c.373-.01.682-.021.927-.032zM47.998 0c.704 0 1.28.107 1.728.32.459.203.864.443 1.216.72.214.16.374.181.48.064.118-.128.198-.421.24-.88h.368c-.021.395-.037.875-.048 1.44-.01.565-.016 1.312-.016 2.24h-.368a15.75 15.75 0 00-.208-1.088 3.184 3.184 0 00-.24-.704 2.792 2.792 0 00-.352-.576A2.79 2.79 0 0049.55.592a4.187 4.187 0 00-1.584-.304c-.522 0-.997.133-1.424.4-.416.256-.778.63-1.088 1.12-.298.49-.533 1.083-.704 1.776-.16.693-.24 1.472-.24 2.336 0 .896.091 1.69.272 2.384.182.683.432 1.259.752 1.728.331.47.715.827 1.152 1.072.448.235.928.352 1.44.352.48 0 .982-.096 1.504-.288a2.521 2.521 0 001.232-.928c.235-.31.395-.645.48-1.008.096-.363.182-.87.256-1.52h.368c0 .97.006 1.755.016 2.352.011.587.027 1.083.048 1.488h-.368c-.042-.459-.117-.747-.224-.864-.096-.117-.261-.101-.496.048a8.698 8.698 0 01-1.264.736c-.437.203-1.002.304-1.696.304-1.013 0-1.904-.23-2.672-.688-.757-.459-1.349-1.12-1.776-1.984-.416-.864-.624-1.904-.624-3.12 0-1.195.219-2.24.656-3.136.438-.896 1.035-1.595 1.792-2.096C46.126.251 47.006 0 47.998 0zm9.832.224v.32c-.363.01-.64.053-.832.128a.577.577 0 00-.368.384c-.064.181-.096.47-.096.864v7.936c0 .384.032.672.096.864.064.192.187.32.368.384.192.053.47.08.832.08h1.168c.501 0 .907-.053 1.216-.16.32-.107.57-.272.752-.496.192-.235.336-.544.432-.928.096-.384.17-.853.224-1.408h.368c-.032.33-.048.768-.048 1.312 0 .203.005.496.016.88.021.373.053.763.096 1.168a47.468 47.468 0 00-1.84-.032c-.683-.01-1.29-.016-1.824-.016h-.912c-.363 0-.757.005-1.184.016-.427 0-.859.005-1.296.016-.437 0-.853.005-1.248.016v-.32c.363-.021.635-.064.816-.128a.577.577 0 00.384-.384c.064-.192.096-.48.096-.864V1.92c0-.395-.032-.683-.096-.864a.577.577 0 00-.384-.384c-.181-.075-.453-.117-.816-.128v-.32c.224.01.517.021.88.032a39.867 39.867 0 002.272 0c.373-.01.683-.021.928-.032zM68.42 0c1.014 0 1.899.23 2.656.688.768.459 1.36 1.12 1.776 1.984.427.853.64 1.893.64 3.12 0 1.195-.218 2.24-.656 3.136-.426.896-1.024 1.595-1.792 2.096-.768.501-1.648.752-2.64.752-1.013 0-1.904-.23-2.672-.688-.757-.459-1.35-1.12-1.776-1.984-.416-.864-.624-1.904-.624-3.12 0-1.195.219-2.24.656-3.136.438-.896 1.035-1.595 1.792-2.096C66.548.251 67.428 0 68.42 0zm-.064.288c-.693 0-1.296.24-1.808.72s-.912 1.141-1.2 1.984c-.277.843-.416 1.819-.416 2.928 0 1.13.155 2.117.464 2.96.32.832.747 1.477 1.28 1.936.544.448 1.142.672 1.792.672.694 0 1.296-.24 1.808-.72s.907-1.141 1.184-1.984c.288-.853.432-1.83.432-2.928 0-1.141-.16-2.128-.48-2.96-.31-.832-.73-1.472-1.264-1.92-.533-.459-1.13-.688-1.792-.688zM78.44.048c.533 0 .938.064 1.216.192.277.117.522.25.736.4l.304.176a.686.686 0 00.24.048c.106 0 .181-.059.224-.176.053-.117.096-.293.128-.528h.368c-.011.181-.027.4-.048.656-.011.245-.022.576-.032.992v1.616h-.368a4.623 4.623 0 00-.336-1.472A2.804 2.804 0 0080.024.8c-.363-.299-.843-.448-1.44-.448-.566 0-1.035.17-1.408.512-.363.341-.544.79-.544 1.344 0 .48.122.885.368 1.216.245.32.57.613.976.88.416.256.864.533 1.344.832.554.341 1.045.683 1.472 1.024.437.33.778.699 1.024 1.104.256.405.384.896.384 1.472 0 .683-.155 1.248-.464 1.696-.31.448-.72.784-1.232 1.008a4.186 4.186 0 01-1.696.336c-.566 0-1.014-.064-1.344-.192a5.777 5.777 0 01-.848-.4c-.235-.15-.416-.224-.544-.224-.107 0-.187.059-.24.176-.043.117-.08.293-.112.528h-.368c.021-.224.032-.485.032-.784.01-.31.016-.71.016-1.2.01-.49.016-1.11.016-1.856h.368c.042.64.16 1.237.352 1.792.202.555.506 1.003.912 1.344.416.33.965.496 1.648.496.352 0 .682-.07.992-.208.32-.15.581-.379.784-.688.202-.32.304-.73.304-1.232 0-.437-.107-.816-.32-1.136a3.297 3.297 0 00-.864-.912c-.374-.288-.811-.581-1.312-.88a21.55 21.55 0 01-1.408-.944 4.136 4.136 0 01-1.056-1.104c-.256-.427-.384-.939-.384-1.536 0-.63.138-1.147.416-1.552.288-.416.661-.72 1.12-.912.458-.203.949-.304 1.472-.304zm13.2.176c-.042.373-.074.736-.096 1.088-.01.352-.016.619-.016.8 0 .192.006.379.016.56.01.17.022.315.032.432h-.368c-.064-.63-.154-1.125-.272-1.488-.117-.373-.32-.635-.608-.784-.277-.16-.698-.24-1.264-.24h-1.328c-.362 0-.64.032-.832.096a.532.532 0 00-.368.368c-.064.181-.096.47-.096.864v7.936c0 .384.032.672.096.864.064.192.187.32.368.384.192.053.47.08.832.08h1.168c.672 0 1.179-.09 1.52-.272.352-.181.603-.475.752-.88.16-.416.278-.976.352-1.68h.368c-.032.288-.048.672-.048 1.152 0 .203.006.496.016.88.022.373.054.763.096 1.168a47.471 47.471 0 00-1.84-.032c-.682-.01-1.29-.016-1.824-.016h-.912c-.362 0-.757.005-1.184.016-.426 0-.858.005-1.296.016-.437 0-.853.005-1.248.016v-.32c.363-.021.635-.064.816-.128a.577.577 0 00.384-.384c.064-.192.096-.48.096-.864V1.92c0-.395-.032-.683-.096-.864a.577.577 0 00-.384-.384c-.181-.075-.453-.117-.816-.128v-.32l1.248.032c.438 0 .87.005 1.296.016h3.76c.63-.01 1.19-.027 1.68-.048zm-2.752 5.472v.32H85.96v-.32h2.928zm.464-2.112a21.466 21.466 0 00-.064 1.392c.01.32.016.613.016.88s.006.56.016.88c.01.32.038.784.08 1.392h-.368a13.781 13.781 0 00-.16-.992c-.053-.33-.181-.597-.384-.8-.192-.213-.522-.32-.992-.32v-.32c.352 0 .619-.07.8-.208.192-.15.33-.336.416-.56.086-.224.144-.453.176-.688.032-.245.064-.464.096-.656h.368z" fill="#000"/></svg>