<svg width="27" height="24" fill="none" xmlns="http://www.w3.org/2000/svg"><g clip-path="url(#a)"><path d="M13.503 5.847c-3.83 0-6.92 2.747-6.92 6.153 0 3.406 3.09 6.153 6.92 6.153s6.92-2.747 6.92-6.153c0-3.406-3.09-6.153-6.92-6.153zm0 10.153c-2.476 0-4.5-1.794-4.5-4s2.018-4 4.5-4 4.5 1.794 4.5 4-2.024 4-4.5 4zm8.818-10.405c0 .798-.723 1.435-1.614 1.435-.898 0-1.614-.642-1.614-1.435s.723-1.435 1.614-1.435c.892 0 1.614.642 1.614 1.435zm4.584 1.457c-.102-1.923-.596-3.626-2.18-5.029C23.147.62 21.23.181 19.069.084 16.84-.028 10.16-.028 7.93.084 5.775.175 3.86.614 2.275 2.018.691 3.42.203 5.124.095 7.046c-.127 1.982-.127 7.92 0 9.902.102 1.923.596 3.626 2.18 5.029 1.585 1.403 3.494 1.842 5.656 1.939 2.229.112 8.909.112 11.138 0 2.162-.091 4.078-.53 5.656-1.939 1.578-1.403 2.072-3.106 2.18-5.029.127-1.981.127-7.915 0-9.896zm-2.88 12.022c-.469 1.05-1.378 1.859-2.565 2.282-1.777.626-5.993.482-7.957.482-1.964 0-6.186.139-7.957-.482-1.18-.418-2.09-1.227-2.566-2.282-.705-1.58-.542-5.328-.542-7.074 0-1.746-.157-5.5.542-7.074.47-1.05 1.38-1.859 2.566-2.282 1.777-.626 5.993-.482 7.957-.482 1.964 0 6.186-.139 7.957.482 1.18.418 2.09 1.227 2.566 2.282.705 1.58.542 5.328.542 7.074 0 1.746.163 5.5-.542 7.074z" fill="#fff"/></g><defs><clipPath id="a"><path fill="#fff" d="M0 0H27V24H0z"/></clipPath></defs></svg>