<svg width="27" height="24" fill="none" xmlns="http://www.w3.org/2000/svg"><g clip-path="url(#a)"><path d="M24.225 5.888c.017.259.017.517.017.776 0 7.882-5.568 16.963-15.745 16.963-3.135 0-6.047-.978-8.497-2.676.445.055.874.073 1.336.073 2.587 0 4.969-.94 6.87-2.547-2.433-.055-4.471-1.772-5.174-4.135.343.056.686.093 1.045.093.497 0 .994-.074 1.457-.203-2.536-.554-4.438-2.954-4.438-5.852v-.074c.737.443 1.594.72 2.502.757-1.49-1.07-2.467-2.898-2.467-4.965 0-1.108.274-2.123.753-3.009 2.724 3.618 6.819 5.98 11.41 6.24a7.235 7.235 0 01-.137-1.367C13.157 2.676 15.624 0 18.691 0c1.593 0 3.032.72 4.043 1.883a10.43 10.43 0 003.512-1.44c-.411 1.384-1.285 2.547-2.432 3.286A10.472 10.472 0 0027 2.806a12.44 12.44 0 01-2.775 3.082z" fill="#fff"/></g><defs><clipPath id="a"><path fill="#fff" d="M0 0H27V24H0z"/></clipPath></defs></svg>