<svg width="27" height="24" fill="none" xmlns="http://www.w3.org/2000/svg"><g clip-path="url(#a)"><path d="M26.436 3.755c-.31-1.478-1.226-2.642-2.387-3.037C21.943 0 13.5 0 13.5 0S5.057 0 2.951.718C1.79 1.113.875 2.278.564 3.755 0 6.435 0 12.025 0 12.025s0 5.59.564 8.268c.31 1.479 1.226 2.594 2.387 2.99C5.057 24 13.5 24 13.5 24s8.443 0 10.549-.718c1.161-.395 2.076-1.51 2.387-2.989.564-2.679.564-8.269.564-8.269s0-5.59-.564-8.269zM10.739 17.1V6.95l7.056 5.075L10.74 17.1z" fill="#fff"/></g><defs><clipPath id="a"><path fill="#fff" d="M0 0H27V24H0z"/></clipPath></defs></svg>