<svg xmlns="http://www.w3.org/2000/svg" version="1.1" xmlns:xlink="http://www.w3.org/1999/xlink" width="206" height="206"><svg width="206" height="206" fill="none" xmlns="http://www.w3.org/2000/svg"><path fill="#E3D5C3" d="M0 0H206V206H0z"></path><path d="M135.311 54.376c-.342 3.243-.598 6.4-.768 9.472-.086 2.987-.128 5.29-.128 6.912 0 2.048.042 3.968.128 5.76.085 1.792.17 3.37.256 4.736h-2.945c-.597-5.973-1.407-10.667-2.431-14.08-1.024-3.499-2.816-6.016-5.376-7.552-2.56-1.536-6.528-2.304-11.904-2.304h-8.064c-2.902 0-5.12.256-6.656.768-1.451.427-2.433 1.408-2.945 2.944-.511 1.45-.767 3.755-.767 6.912v63.488c0 3.072.298 5.376.895 6.912.683 1.536 1.963 2.56 3.84 3.072 1.878.512 4.609.853 8.193 1.024V145c-2.219-.171-5.035-.256-8.448-.256-3.414-.085-6.87-.128-10.368-.128-3.328 0-6.443.043-9.344.128-2.902 0-5.248.085-7.04.256v-2.56c2.9-.171 5.077-.512 6.528-1.024 1.535-.512 2.56-1.536 3.072-3.072.511-1.536.767-3.84.767-6.912V67.944c0-3.157-.255-5.461-.767-6.912-.513-1.536-1.537-2.56-3.073-3.072-1.45-.597-3.626-.939-6.527-1.024v-2.56c3.157.085 6.485.17 9.984.256 3.498 0 6.954.043 10.367.128H121.871a513.07 513.07 0 0013.44-.384zm-19.84 45.056v2.56h-25.6v-2.56h25.6zm2.432-16.896c-.342 4.864-.512 8.576-.512 11.136.085 2.56.128 4.907.128 7.04s.042 4.48.128 7.04c.085 2.56.298 6.272.64 11.136h-2.944a110.442 110.442 0 00-1.28-7.936c-.427-2.645-1.451-4.779-3.072-6.4-1.536-1.707-4.182-2.56-7.936-2.56v-2.56c2.816 0 4.949-.555 6.4-1.664 1.536-1.195 2.645-2.688 3.328-4.48a24.88 24.88 0 001.408-5.504c.256-1.963.512-3.712.768-5.248h2.944z" fill="#4B2F23"></path></svg><style>@media (prefers-color-scheme: light) { :root { filter: none; } }
@media (prefers-color-scheme: dark) { :root { filter: none; } }
</style></svg>