<svg width="439" height="975" fill="none" xmlns="http://www.w3.org/2000/svg"><path d="M426.251 3.045L0 0v117s44.575-12.964 97.667-24.64C143.35 82.314 181.315 78.5 205.208 78.5c21.722 0 44.31-2 83.1 9.5 38.791 11.5 103.651 60.913 65.087 146.618C318.651 311.836 225.929 375.5 225.929 375.5s-121.408 75.827-178.59 212.862C-2.218 707.119 1.701 889.603 1.701 889.603v78.422L438.23 975s4.891-12.182-9.96-47.5c-21.542-51.232-55.43-59.136-94.22-167.103-25.794-71.794-34.188-176.239-16.193-249.154 11.883-48.15 33.961-86.56 54.644-122.545 15.248-26.527 29.738-51.736 38.828-78.558C446.654 205.903 426.251 3.045 426.251 3.045z" fill="#F5F0E8"/></svg>